PathFileType	4	(X/Y/Z)	Walk1_0-155.trc
DataRate	CameraRate	NumFrames	NumMarkers	Units	OrigDataRate	OrigDataStartFrame	OrigNumFrames
30	30	7	22	m	30	135	155
Frame#	Time	Hip			RHip			RKnee			RAnkle			RBigToe			RSmallToe			RHeel			LHip			LKnee			LAnkle			LBigToe			LSmallToe			LHeel			Neck			Head			Nose			RShoulder			RElbow			RWrist			LShoulder			LElbow			LWrist		
		X1	Y1	Z1	X2	Y2	Z2	X3	Y3	Z3	X4	Y4	Z4	X5	Y5	Z5	X6	Y6	Z6	X7	Y7	Z7	X8	Y8	Z8	X9	Y9	Z9	X10	Y10	Z10	X11	Y11	Z11	X12	Y12	Z12	X13	Y13	Z13	X14	Y14	Z14	X15	Y15	Z15	X16	Y16	Z16	X17	Y17	Z17	X18	Y18	Z18	X19	Y19	Z19	X20	Y20	Z20	X21	Y21	Z21	X22	Y22	Z22
136	4.533333333333333	1.7387307351265238	0.8954056471566244	0.37987124970314173	1.7767799312843624	0.871335427736789	0.4832705052670376	1.9478278123486825	0.5433959894730747	0.47045072398253623	1.888474778005736	0.13232360807056875	0.4701149763745208	2.1144111142420647	0.04828737886880755	0.4935264306675708	2.068990095143477	0.030184247128330986	0.5218255934357753	1.8458529919873914	0.06267900331966145	0.46478343508662634	1.7191878757702557	0.8694883817208097	0.27851232281474664	1.670879758066335	0.5057861136711873	0.2929261421915302	1.6171299733487083	0.1084429141643847	0.3191803278753553	1.8307121059826943	0.0033321177678830604	0.3161477093098391	1.7235420925303884	0.026248394257302427	0.23348457900571384	1.5797641684855404	0.030880733825518335	0.3383206647356684	1.6389656275841837	1.5868953036156355	0.358988545481434	1.6892185032322071	1.8385895742376488	0.3655582384285647	1.8425218956668592	1.6581151716851654	0.3615440453068837	1.608919919145656	1.4608017255921	0.5373339666096723	1.608318491581459	1.1572438485796606	0.6018299647013015	1.6241737077911453	0.9022415509907434	0.6417810343983307	1.670382456651178	1.4717633392427703	0.21291549889415307	1.7676395283510353	1.1853424366342784	0.12919303336358132	1.9222622617232819	1.0183156866172152	0.10977557462838819
137	4.566666666666666	1.7720478300463547	0.8930670351503806	0.3812887922522336	1.804504472435261	0.8700143747207263	0.48497784418158696	1.9196263211722226	0.5149130663752134	0.47319138682991785	1.9985777718743731	0.12215512617936393	0.4775868795324964	2.2239804809368033	0.08249645433459586	0.4943720430246383	2.1948830844017624	0.056673611066306355	0.5250791304301667	1.9756356658026157	0.04941769939383595	0.4805875012149065	1.7472531248245833	0.8652926323017359	0.2825145811276947	1.6893923022948538	0.49973642220408776	0.2947869455545278	1.6206178042065515	0.1059919224557647	0.3211679980190617	1.7923010120290577	0.02490887317963027	0.28097933140069287	1.7352463017027382	0.012323317706372709	0.23126750420964448	1.5893578713660261	0.024941530215122215	0.3325654305336312	1.6711939952333983	1.584191365655891	0.35912608495694276	1.7196149046718878	1.835505869335232	0.3681531575291355	1.8755405005061327	1.652215601685868	0.36421150068366676	1.6460507086526326	1.4602675035727515	0.5394530453049187	1.6245918368105678	1.1559680249453135	0.6021515193612778	1.6331250043400967	0.9025309729394193	0.6442327247401299	1.7026243347486003	1.4698208015280372	0.2169232884021381	1.7531347238555173	1.172311323093585	0.08079379119810888	1.9676463033914997	1.028670039115397	0.11061771858537198
138	4.6	1.8055931531949019	0.8892491840616933	0.3862050808895011	1.8402370493622937	0.8702063358817536	0.4878938479319984	1.9504108799188031	0.5045998041240005	0.4706673601168489	2.0835032609930573	0.12057830566159931	0.48354300548704665	2.300546024121804	0.10609462532928782	0.49113763793516135	2.279644850728932	0.0799937023321372	0.5225904095203024	2.0681244490667487	0.05178598592993399	0.48794740369909184	1.7841750971760748	0.8665318955989368	0.2823062551803904	1.7116527940994684	0.4945859923413254	0.29506099585171014	1.6211694679184128	0.1040600384654734	0.3212905320275955	1.795828684070382	0.019412401019954735	0.2857591007579978	1.7343392378206592	0.009272095827785414	0.23736268956364778	1.586135192340261	0.022882636837687154	0.33648055062473375	1.7079005444728683	1.5768422322840885	0.3614966631175033	1.7512777525488379	1.8314142271365015	0.3654212575328516	1.9095277445199292	1.6482267169136737	0.3562126969451051	1.6809645190160296	1.4572819371339734	0.5430976780730962	1.647894113877177	1.1542276978340695	0.6030072612598588	1.6505220108995302	0.8957829577696632	0.6481557720192879	1.7373629340111056	1.4652802730765748	0.22155437437218026	1.7865614820761302	1.1677015805431599	0.07999338090538029	2.0083634297779533	1.0343611418330927	0.11334438816368149
139	4.633333333333334	1.8435772617883157	0.8859591566855173	0.38850492981742035	1.8777270439639437	0.8613467915727914	0.4896982538795857	1.984086633595519	0.4937683807565965	0.4687130308884983	2.1438075732931767	0.13466967028478027	0.48632460996430293	2.3940061829013493	0.1324927117790633	0.4868799497606816	2.342069315778452	0.09414321713991798	0.5238178280961943	2.1380880886591416	0.06416181191850517	0.4906730760388963	1.820389842109347	0.8621191360150824	0.2827589703682592	1.7371611345872457	0.4912896150136822	0.29418348911238246	1.623305691950729	0.10511505708092733	0.32166285543390116	1.7993457384462606	0.018293473917066743	0.2817625198231898	1.7414992578715223	0.005319012797052206	0.23041785603401851	1.5890052403095574	0.03356709903208556	0.3352744620592204	1.7419015678776004	1.5716350209265544	0.3684880359679529	1.7847266701346023	1.8251903564964584	0.37334973568414115	1.9406566378549044	1.6426560173380935	0.3578485584862044	1.7138647408361816	1.4504770040743797	0.5509002028852577	1.6773043057606492	1.1510151589410917	0.6074302640242769	1.67874691331955	0.8936217907627421	0.6545109001190615	1.7714191633863319	1.4557735110235777	0.22633615871703708	1.8685777647245947	1.1707615746641038	0.12860507145035915	2.046220724137307	1.0333227318501434	0.11900431835950655
140	4.666666666666667	1.8820953015522481	0.8778117692472238	0.3923822564173676	1.9217775245169681	0.8525069198322633	0.4958675176415721	2.0179817097131187	0.48266399992970394	0.4711980705368746	2.1843429785479653	0.12296220508095261	0.48855374964436876	2.419108973213507	0.1130746383530942	0.4857371486054757	2.3758797354788754	0.0795445857562605	0.5213521022260305	2.1773974458154064	0.06113772340674895	0.49060647368761523	1.8592754118585877	0.856037827414433	0.28730579548351887	1.7655898220979154	0.49122570116859776	0.2936462622882284	1.6259624787298368	0.10543195320862174	0.3204537778223974	1.8027908130899706	0.016149496232575732	0.2836682341858743	1.7457618774187245	0.0018961537045606514	0.22908238391645389	1.587330282077771	0.04172868640526673	0.3428618881056973	1.7725936392190003	1.5671418206002965	0.3733239847750974	1.8133968652056425	1.8204741128078414	0.3758020010111092	1.969966318809015	1.6375433807230202	0.3627857913862581	1.7459952362456181	1.4433086146255287	0.5566975200480604	1.7096738591952216	1.1436601743717465	0.614410486550349	1.7059852482000117	0.8886124584093686	0.6591074409883482	1.805364562568864	1.451113114786928	0.2324765220434365	1.8554803744664141	1.153731152108137	0.09199283974785598	2.1356136874791614	1.0157890911238128	0.13004490144709532
141	4.7	1.9208108478739137	0.8678226265063932	0.3991546712889131	1.96616178451693	0.8483577558518082	0.5024264758282283	2.054496039969178	0.4764711153629744	0.4770553925354902	2.203844024792371	0.11689245160240318	0.48491884650063766	2.436883478136906	0.0865819197578592	0.4882112872760059	2.3965199175792407	0.056931651363306114	0.521258598993077	2.2176260539087185	0.02073489861625565	0.4657886790944671	1.9018200887793746	0.8551050797873616	0.29042575132232606	1.796050856266654	0.4923667709826591	0.292923478571951	1.6351658403309834	0.10949799472412566	0.31952381982158157	1.7972694743752364	0.011936492934871123	0.2793886520673883	1.737805419525266	0.0035832537850745425	0.2321475477116749	1.593668658844399	0.04731441979689605	0.350203471750695	1.8070386157258176	1.5568577196065285	0.3795860923247241	1.8441808298380087	1.8175960507573115	0.37712485272278135	2.0002790517466114	1.6301086849490103	0.37424187688658495	1.7780473423875107	1.436996328629057	0.5587507062932298	1.7481481764318536	1.1366367907327248	0.6198818156994148	1.738229637980087	0.8791951708890001	0.6630663431492299	1.8404446236000944	1.4439218651060963	0.24180528766686624	1.930326570773303	1.1549317414775186	0.13636911498449192	2.1570540325153957	0.9953964124508394	0.13358635500981658
142	4.733333333333333	1.9609862183751627	0.8613460309090544	0.40639781173669287	2.0104444557613763	0.8470347816000825	0.5082784673900816	2.0941588530073036	0.4736427711739699	0.47899033848886313	2.221596616807649	0.10312048693347294	0.4777902159147046	2.440995000697817	0.04774009891348658	0.4888085121691632	2.4110567775417584	0.031696530995587925	0.5218011918011612	2.2270253151291945	0.02015265657340899	0.4643376874704815	1.9401293339560346	0.8506249063744269	0.29661895357041096	1.8324622581742487	0.4895835960235536	0.29257570025025437	1.64093280815148	0.12253080993328629	0.3178446127592708	1.8030045813452589	0.002789695887089659	0.27709909054574994	1.7450125082886168	0.001538284532076485	0.2351081259010487	1.5829698957368037	0.05519561709997715	0.3305001030350028	1.8418719277380387	1.5484165925907933	0.3860041469011047	1.9365406793616358	1.7843891103522371	0.3580120927154188	1.966405686730069	1.662063821902538	0.34284075346747656	1.8151388017520511	1.4292391045995825	0.5618083526049326	1.7858439104990012	1.130290834198333	0.6244032276063776	1.7823595644165728	0.8694950529747606	0.6709400345881996	1.8715019244031443	1.4381050865087759	0.25165903696353004	1.9598425399751371	1.1418725606132467	0.145076253684085	2.1708640468169693	0.975501480270999	0.1345624278337179
